<?xml version="1.0" encoding="utf-8"?>
<!-- Generator: Adobe Illustrator 19.2.1, SVG Export Plug-In . SVG Version: 6.00 Build 0)  -->
<svg version="1.1" id="Layer_1" xmlns="http://www.w3.org/2000/svg" xmlns:xlink="http://www.w3.org/1999/xlink" x="0px" y="0px"
	 viewBox="0 0 500 500" style="enable-background:new 0 0 500 500;" xml:space="preserve">
<style type="text/css">
	.st0{fill:none;}
	.st1{fill:#FBFBFB;}
</style>
<g>
	<path class="st0" d="M352.1,164c0-57.3-46.4-103.7-103.7-103.7S144.7,106.8,144.7,164c0,25.6,7.1,46.6,22.4,64.7L140,247.5v100.3
		l36.7,37.2H347l18-18.9V250l-36.4-20.8C340.3,212.4,352.1,186,352.1,164z M164.4,187.6c-3-8.9-4.6-18.5-4.6-28.4
		c0-10.1,1.7-19.7,4.7-28.8c10.5-2.5,18.3-11.9,18.3-23.1c0-2.4-0.4-4.7-1-6.9c12.6-14.5,29.8-24.9,49.3-29
		c4.3,4.8,10.6,7.8,17.6,7.8c7.1,0,13.5-3.1,17.8-8.1c19.8,3.8,37.3,14.2,50.2,28.7c-0.9,2.5-1.3,5.1-1.3,7.9
		c0,11.6,8.3,21.2,19.3,23.3c2.9,8.8,4.5,18.3,4.5,28.1c0,9.9-1.6,19.3-4.5,28.2c-11.5,1.6-20.4,11.5-20.4,23.5c0,3,0.6,5.9,1.6,8.6
		c-11.4,12.6-26.4,21.9-43.3,26.4l7.1-13.8c11.9-1.3,21.2-11.3,21.2-23.6c0-4.2-1.1-8.1-3-11.5l7.2-13.8c0.1,0,0.2,0,0.3,0
		c13.1,0,23.7-10.6,23.7-23.7c0-13.1-10.6-23.7-23.7-23.7c-13.1,0-23.7,10.6-23.7,23.7c0,2.7,0.5,5.3,1.3,7.8l-11.9,18.4
		c-10.2,2.7-17.6,11.9-17.6,22.9c0,1.3,0.1,2.6,0.3,3.8l-22.5,34.7c-19.3-4-36.3-14.2-48.8-28.4c0.8-2.4,1.3-5,1.3-7.7
		C183.5,199.3,175.3,189.7,164.4,187.6z M253.4,273.1c-0.9,1.7-3,2.2-4.5,1.2l-17.5-11.4c-1.5-1-2-3.2-1.1-4.8l64.4-99.8
		c0.9-1.7,3-2.2,4.5-1.2l8.1,5.2c1.5,1,2,3.2,1.1,4.8L253.4,273.1z M292,375H180.7L148,342.9v-86.8l37.5-7.3l80.2,47.2H292V375z
		 M357,259.2v103.3L344.8,375H300v-79h21.9L357,259.2z"/>
	<circle class="st0" cx="140.9" cy="224.7" r="4.8"/>
	<circle class="st0" cx="140.9" cy="64.7" r="4.8"/>
	<circle class="st0" cx="359.3" cy="224.7" r="4.8"/>
	<circle class="st0" cx="359.3" cy="64.7" r="4.8"/>
	<path class="st0" d="M168.8,436L168.8,436c-0.1,0-0.5,1.5-0.8,2.5l-1.6,4.5h4.7l-1.6-4.5C169.2,437.5,168.8,436,168.8,436z"/>
	<circle class="st0" cx="220.7" cy="208.4" r="23.7"/>
	<circle class="st0" cx="192.5" cy="159.4" r="23.7"/>
	<circle class="st0" cx="359.3" cy="398.4" r="4.8"/>
	<circle class="st0" cx="277" cy="110.8" r="23.7"/>
	<circle class="st0" cx="220.7" cy="110.8" r="23.7"/>
	<circle class="st0" cx="249.2" cy="159" r="14"/>
	<circle class="st0" cx="140.9" cy="398.4" r="4.8"/>
	<path class="st0" d="M256.3,434.8c-3.3,0-6,2.6-6,6.2c0,3.7,2.6,6.5,6,6.5c3.3,0,6-2.7,6-6.5C262.2,437.5,259.6,434.8,256.3,434.8z
		"/>
	<path class="st0" d="M234.8,435H232v6h3.2c1.8,0,2.9-1.2,2.9-3C238.1,436.2,237.3,435,234.8,435z"/>
	<g>
		<path class="st1" d="M181.7,243.3c-4.7-2.9-12.1-2.7-16.6,0.6l-8.9,6.4c-4.4,3.2-8.2,10.4-8.2,15.9v66.8c0,5.5,3.3,13.2,7.2,17.1
			l18.3,18.1c3.9,3.9,11.6,6.9,17.1,6.9H282c5.5,0,10-4.2,10-9.7v-59.5c0-5.5-4.5-9.8-10-9.8h-6.3c-5.5,0-13.8-2.5-18.5-5.4
			L181.7,243.3z"/>
	</g>
	<g>
		<path class="st1" d="M310.2,296c-5.5,0-10.2,4.3-10.2,9.8v59.5c0,5.5,4.7,9.7,10.2,9.7h24.6c5.5,0,13.1-2.7,16.6-6.3
			c3.5-3.5,6.6-10.8,6.6-16.3v-89.2c0-5.5-3.1-6.6-6.6-2.3l-22.9,27.3c-3.5,4.2-11,7.7-16.5,7.7H310.2z"/>
	</g>
	<g>
		<path class="st1" d="M373.5,60.5c0-5.5-4.5-10-10-10H137.1c-5.5,0-10,4.5-10,10v341.9c0,5.5,4.5,10,10,10h226.4
			c5.5,0,10-4.5,10-10V60.5z M359.3,59.9c2.7,0,4.8,2.2,4.8,4.8c0,2.7-2.2,4.8-4.8,4.8c-2.7,0-4.8-2.2-4.8-4.8
			C354.5,62.1,356.6,59.9,359.3,59.9z M359.3,219.9c2.7,0,4.8,2.2,4.8,4.8c0,2.7-2.2,4.8-4.8,4.8c-2.7,0-4.8-2.2-4.8-4.8
			C354.5,222,356.6,219.9,359.3,219.9z M140.9,59.9c2.7,0,4.8,2.2,4.8,4.8c0,2.7-2.2,4.8-4.8,4.8c-2.7,0-4.8-2.2-4.8-4.8
			C136,62,138.2,59.9,140.9,59.9z M140.9,219.9c2.7,0,4.8,2.2,4.8,4.8c0,2.7-2.2,4.8-4.8,4.8c-2.7,0-4.8-2.2-4.8-4.8
			C136.1,222,138.2,219.9,140.9,219.9z M140.9,403.2c-2.7,0-4.8-2.2-4.8-4.8c0-2.7,2.2-4.8,4.8-4.8c2.7,0,4.8,2.2,4.8,4.8
			C145.7,401,143.6,403.2,140.9,403.2z M359.3,403.2c-2.7,0-4.8-2.2-4.8-4.8c0-2.7,2.2-4.8,4.8-4.8c2.7,0,4.8,2.2,4.8,4.8
			C364.1,401,361.9,403.2,359.3,403.2z M365.6,356.1c0,5.5-3.2,13.1-7.2,17l-4.3,4.2c-3.9,3.8-11.7,7-17.2,7H186.7
			c-5.5,0-13.2-3.2-17-7.1l-22-22.3c-3.9-3.9-7-11.6-7-17.1v-80.3c0-5.5,3.7-12.6,8.2-15.7l10.5-7.3c4.5-3.2,5.9-9.6,3.2-14.4
			c0,0-17.7-30.5-17.7-56.1c0-57.3,46.4-103.7,103.7-103.7S352.1,106.8,352.1,164c0,22-18.5,56.4-18.5,56.4c-2.6,4.8-0.8,11,4,13.7
			l19.3,10.9c4.8,2.7,8.7,9.4,8.7,14.9V356.1z"/>
	</g>
	<path class="st1" d="M307.3,162.4l-8.1-5.2c-1.5-1-3.6-0.5-4.5,1.2l-64.4,99.8c-0.9,1.7-0.5,3.8,1.1,4.8l17.5,11.4
		c1.5,1,3.6,0.5,4.5-1.2l55-105.9C309.3,165.5,308.8,163.4,307.3,162.4z"/>
	<path class="st1" d="M131.8,437c0-1.3,1.2-2.2,2.7-2.2c2.3,0,4,1.6,4,1.6l1.4-2.7c0,0-1.8-1.9-5.4-1.9c-3.5,0-6.1,2.2-6.1,5.2
		c0,5.5,8.5,5,8.5,8.2c0,1.5-1.2,2.2-2.6,2.2c-2.5,0-4.5-1.9-4.5-1.9l-1.8,2.5c0,0,2.2,2.5,6.2,2.5c3.8,0,6-2.4,6-5.3
		C140.3,439.4,131.8,440.2,131.8,437z"/>
	<polygon class="st1" points="144,435 150,435 150,450 153,450 153,435 159,435 159,433 144,433 	"/>
	<path class="st1" d="M167,433l-6.4,17h3.4l1.5-4h6.3l1.5,4h3.4l-6.4-17H167z M166.4,443l1.6-4.5c0.4-1,0.8-2.5,0.8-2.5h0.1
		c0,0,0.4,1.5,0.7,2.5l1.6,4.5H166.4z"/>
	<path class="st1" d="M184,437c0-1.3,1.2-2.2,2.7-2.2c2.3,0,4,1.6,4,1.6l1.4-2.7c0,0-1.8-1.9-5.4-1.9c-3.5,0-6.1,2.2-6.1,5.2
		c0,5.5,8.5,5,8.5,8.2c0,1.5-1.2,2.2-2.6,2.2c-2.5,0-4.5-1.9-4.5-1.9l-1.8,2.5c0,0,2.2,2.5,6.2,2.5c3.8,0,6-2.4,6-5.3
		C192.5,439.4,184,440.2,184,437z"/>
	<polygon class="st1" points="209,440 201,440 201,433 198,433 198,450 201,450 201,443 209,443 209,450 213,450 213,433 209,433 	
		"/>
	<rect x="219" y="447" class="st1" width="4" height="3"/>
	<path class="st1" d="M238,442.6L238,442.6c2-0.8,3.2-2.8,3.2-5c0-2.4-1.1-3.7-2.9-4.5c-0.8-0.4-1.6-0.1-3.6-0.1H229v17h3v-7h3.4
		l3.6,7h3.7l-3.9-6.6C238.4,442.7,238,442.6,238,442.6z M235.2,441H232v-6h2.8c2.6,0,3.3,1.2,3.3,3C238.1,439.8,237,441,235.2,441z"
		/>
	<path class="st1" d="M256.3,431.8c-5.3,0-9.3,4-9.3,9.2c0,5.3,4,9.5,9.3,9.5c5.3,0,9.3-4.1,9.3-9.5
		C265.6,435.9,261.6,431.8,256.3,431.8z M256.3,447.5c-3.3,0-6-2.7-6-6.5c0-3.6,2.6-6.2,6-6.2c3.3,0,6,2.6,6,6.2
		C262.2,444.7,259.6,447.5,256.3,447.5z"/>
	<path class="st1" d="M283,443.7c0,2.4-1.6,3.8-4,3.8c-2.4,0-4-1.4-4-3.8V433h-5v10.7c0,4,3.1,6.8,7.5,6.8c4.4,0,7.5-2.7,7.5-6.8
		V433h-2V443.7z"/>
	<polygon class="st1" points="296,433 293,433 293,450 304,450 304,447 296,447 	"/>
	<polygon class="st1" points="312,443 319,443 319,440 312,440 312,435 320,435 320,433 309,433 309,450 320,450 320,447 312,447 	
		"/>
	<polygon class="st1" points="324,435 330,435 330,450 333,450 333,435 339,435 339,433 324,433 	"/>
	<polygon class="st1" points="343,435 349,435 349,450 352,450 352,435 357,435 357,433 343,433 	"/>
	<polygon class="st1" points="373,435 373,433 362,433 362,450 373,450 373,447 366,447 366,443 372,443 372,440 366,440 366,435 	
		"/>
</g>
<g>
	<circle class="st0" cx="192.5" cy="159.4" r="23.7"/>
	<circle class="st0" cx="220.7" cy="110.8" r="23.7"/>
	<circle class="st0" cx="220.7" cy="208.4" r="23.7"/>
	<circle class="st0" cx="249.2" cy="159" r="14"/>
	<path class="st0" d="M300.7,208.4c0-3.9-1-7.6-2.6-10.8l-17.8,34.3C291.8,230.4,300.7,220.5,300.7,208.4z"/>
	<circle class="st0" cx="277" cy="110.8" r="23.7"/>
	<path class="st1" d="M334.6,131.1c-11-2.1-19.3-11.7-19.3-23.3c0-2.8,0.5-5.4,1.3-7.9c-12.8-14.6-30.3-24.9-50.2-28.7
		c-4.4,5-10.7,8.1-17.8,8.1c-7,0-13.3-3-17.6-7.8c-19.5,4.1-36.7,14.5-49.3,29c0.7,2.2,1,4.5,1,6.9c0,11.2-7.8,20.6-18.3,23.1
		c-3.1,9-4.7,18.7-4.7,28.8c0,9.9,1.6,19.5,4.6,28.4c10.9,2.1,19.1,11.8,19.1,23.3c0,2.7-0.5,5.3-1.3,7.7
		c12.6,14.2,29.6,24.4,48.8,28.4l22.5-34.7c-0.2-1.2-0.3-2.5-0.3-3.8c0-11,7.5-20.2,17.6-22.9l11.9-18.4c-0.8-2.4-1.3-5.1-1.3-7.8
		c0-13.1,10.6-23.7,23.7-23.7c13.1,0,23.7,10.6,23.7,23.7c0,13-10.4,23.5-23.3,23.7l-7.5,14.5c1.7,3.3,2.6,6.9,2.6,10.8
		c0,12-8.9,21.9-20.5,23.5l-7.1,13.7c16.6-4.6,31.3-13.8,42.6-26.1c-1-2.7-1.6-5.6-1.6-8.6c0-12,8.9-21.9,20.4-23.5
		c2.9-8.9,4.5-18.3,4.5-28.2C339.1,149.3,337.5,139.9,334.6,131.1z M220.7,87.1c13.1,0,23.7,10.6,23.7,23.7
		c0,13.1-10.6,23.7-23.7,23.7c-13.1,0-23.7-10.6-23.7-23.7C197,97.7,207.6,87.1,220.7,87.1z M168.7,159.4
		c0-13.1,10.6-23.7,23.7-23.7c13.1,0,23.7,10.6,23.7,23.7c0,13.1-10.6,23.7-23.7,23.7C179.4,183.1,168.7,172.5,168.7,159.4z
		 M220.7,232.2c-13.1,0-23.7-10.6-23.7-23.7c0-13.1,10.6-23.7,23.7-23.7c13.1,0,23.7,10.6,23.7,23.7
		C244.5,221.6,233.8,232.2,220.7,232.2z M249.2,173.1c-7.7,0-14-6.3-14-14c0-7.7,6.3-14,14-14s14,6.3,14,14
		C263.2,166.8,256.9,173.1,249.2,173.1z M277,134.5c-13.1,0-23.7-10.6-23.7-23.7c0-13.1,10.6-23.7,23.7-23.7
		c13.1,0,23.7,10.6,23.7,23.7C300.7,123.9,290.1,134.5,277,134.5z"/>
</g>
</svg>
